<svg width="31" height="35" viewBox="0 0 31 35" fill="none" xmlns="http://www.w3.org/2000/svg">
<path d="M13.125 0C10.7187 0 8.75 1.96875 8.75 4.375H4.375C1.96875 4.375 0 6.34375 0 8.75H30.625C30.625 6.34375 28.6563 4.375 26.25 4.375H21.875C21.875 1.96875 19.9063 0 17.5 0H13.125ZM4.375 13.125V34.1687C4.375 34.65 4.725 35 5.20625 35H25.4625C25.9438 35 26.2938 34.65 26.2938 34.1687V13.125H21.9188V28.4375C21.9188 29.6625 20.9563 30.625 19.7313 30.625C18.5063 30.625 17.5438 29.6625 17.5438 28.4375V13.125H13.1687V28.4375C13.1687 29.6625 12.2062 30.625 10.9812 30.625C9.75625 30.625 8.79375 29.6625 8.79375 28.4375V13.125H4.41875H4.375Z" fill="white"/>
</svg>
