<svg width="25" height="25" viewBox="0 0 25 25" fill="none" xmlns="http://www.w3.org/2000/svg">
<path d="M12.5 0C11.625 0 10.9375 0.6875 10.9375 1.5625C10.9375 2.4375 11.625 3.125 12.5 3.125C13.375 3.125 14.0625 2.4375 14.0625 1.5625C14.0625 0.6875 13.375 0 12.5 0ZM4.6875 3.125C3.8125 3.125 3.125 3.8125 3.125 4.6875C3.125 5.5625 3.8125 6.25 4.6875 6.25C5.5625 6.25 6.25 5.5625 6.25 4.6875C6.25 3.8125 5.5625 3.125 4.6875 3.125ZM20.3125 3.125C19.4375 3.125 18.75 3.8125 18.75 4.6875C18.75 5.5625 19.4375 6.25 20.3125 6.25C21.1875 6.25 21.875 5.5625 21.875 4.6875C21.875 3.8125 21.1875 3.125 20.3125 3.125ZM12.5 6.25C9.0625 6.25 6.25 9.0625 6.25 12.5C6.25 15.9375 9.0625 18.75 12.5 18.75C15.9375 18.75 18.75 15.9375 18.75 12.5C18.75 9.0625 15.9375 6.25 12.5 6.25ZM1.5625 10.9375C0.6875 10.9375 0 11.625 0 12.5C0 13.375 0.6875 14.0625 1.5625 14.0625C2.4375 14.0625 3.125 13.375 3.125 12.5C3.125 11.625 2.4375 10.9375 1.5625 10.9375ZM23.4375 10.9375C22.5625 10.9375 21.875 11.625 21.875 12.5C21.875 13.375 22.5625 14.0625 23.4375 14.0625C24.3125 14.0625 25 13.375 25 12.5C25 11.625 24.3125 10.9375 23.4375 10.9375ZM4.6875 18.75C3.8125 18.75 3.125 19.4375 3.125 20.3125C3.125 21.1875 3.8125 21.875 4.6875 21.875C5.5625 21.875 6.25 21.1875 6.25 20.3125C6.25 19.4375 5.5625 18.75 4.6875 18.75ZM20.3125 18.75C19.4375 18.75 18.75 19.4375 18.75 20.3125C18.75 21.1875 19.4375 21.875 20.3125 21.875C21.1875 21.875 21.875 21.1875 21.875 20.3125C21.875 19.4375 21.1875 18.75 20.3125 18.75ZM12.5 21.875C11.625 21.875 10.9375 22.5625 10.9375 23.4375C10.9375 24.3125 11.625 25 12.5 25C13.375 25 14.0625 24.3125 14.0625 23.4375C14.0625 22.5625 13.375 21.875 12.5 21.875Z" fill="white"/>
</svg>
